<svg width="113" height="28" viewBox="0 0 113 28" fill="none" xmlns="http://www.w3.org/2000/svg">
<path d="M10.4481 18.5776C9.03767 18.5776 7.78184 18.3369 6.68057 17.8556C5.57929 17.3742 4.70987 16.7196 4.07229 15.8917C3.43471 15.0445 3.07728 14.1011 3 13.0614H7.89776C7.95572 13.6197 8.21655 14.0722 8.68024 14.4188C9.14394 14.7653 9.71389 14.9386 10.3901 14.9386C11.0084 14.9386 11.4817 14.8231 11.8102 14.5921C12.1579 14.3418 12.3318 14.0241 12.3318 13.639C12.3318 13.1769 12.0903 12.84 11.6073 12.6282C11.1243 12.3971 10.3418 12.1468 9.25986 11.8773C8.10063 11.6077 7.1346 11.3285 6.36178 11.0397C5.58895 10.7316 4.9224 10.2599 4.3621 9.62455C3.8018 8.96991 3.52165 8.09386 3.52165 6.99639C3.52165 6.0722 3.77282 5.23466 4.27516 4.48376C4.79681 3.7136 5.55031 3.1071 6.53566 2.66426C7.54033 2.22142 8.72854 2 10.1003 2C12.129 2 13.7229 2.5006 14.8821 3.50181C16.0607 4.50301 16.7369 5.83153 16.9108 7.48737H12.3318C12.2545 6.929 12.0034 6.48616 11.5783 6.15885C11.1726 5.83153 10.6316 5.66787 9.9554 5.66787C9.37578 5.66787 8.93141 5.78339 8.62228 6.01444C8.31315 6.22623 8.15859 6.52467 8.15859 6.90975C8.15859 7.37184 8.40009 7.71841 8.88311 7.94946C9.38544 8.18051 10.1583 8.41155 11.2016 8.6426C12.3994 8.95066 13.3751 9.25872 14.1286 9.56679C14.8821 9.8556 15.539 10.3369 16.0993 11.0108C16.679 11.6655 16.9784 12.5511 16.9977 13.6679C16.9977 14.6113 16.7273 15.4585 16.1863 16.2094C15.6646 16.941 14.9015 17.5187 13.8968 17.9422C12.9114 18.3658 11.7619 18.5776 10.4481 18.5776Z" fill="black" style="fill:black;fill:black;fill-opacity:1;"/>
<path d="M27.3908 18.5776C25.8065 18.5776 24.3768 18.2407 23.1016 17.5668C21.8458 16.8929 20.8508 15.9302 20.1166 14.6787C19.4017 13.4272 19.0443 11.9639 19.0443 10.2888C19.0443 8.63297 19.4114 7.1793 20.1456 5.9278C20.8797 4.65704 21.8844 3.68472 23.1596 3.01083C24.4347 2.33694 25.8644 2 27.4487 2C29.033 2 30.4627 2.33694 31.7379 3.01083C33.013 3.68472 34.0177 4.65704 34.7519 5.9278C35.4861 7.1793 35.8532 8.63297 35.8532 10.2888C35.8532 11.9446 35.4764 13.4079 34.7229 14.6787C33.9887 15.9302 32.9744 16.8929 31.6799 17.5668C30.4048 18.2407 28.975 18.5776 27.3908 18.5776ZM27.3908 14.3032C28.3375 14.3032 29.1393 13.9567 29.7962 13.2635C30.4724 12.5704 30.8105 11.5788 30.8105 10.2888C30.8105 8.9988 30.4821 8.00722 29.8252 7.31408C29.1876 6.62094 28.3954 6.27437 27.4487 6.27437C26.4827 6.27437 25.6809 6.62094 25.0433 7.31408C24.4057 7.98797 24.087 8.97954 24.087 10.2888C24.087 11.5788 24.3961 12.5704 25.0143 13.2635C25.6519 13.9567 26.4441 14.3032 27.3908 14.3032Z" fill="black" style="fill:black;fill:black;fill-opacity:1;"/>
<path d="M45.8434 18.5776C44.2591 18.5776 42.8294 18.2407 41.5542 17.5668C40.2984 16.8929 39.3034 15.9302 38.5692 14.6787C37.8544 13.4272 37.4969 11.9639 37.4969 10.2888C37.4969 8.63297 37.864 7.1793 38.5982 5.9278C39.3324 4.65704 40.337 3.68472 41.6122 3.01083C42.8874 2.33694 44.3171 2 45.9014 2C47.4856 2 48.9154 2.33694 50.1905 3.01083C51.4657 3.68472 52.4703 4.65704 53.2045 5.9278C53.9387 7.1793 54.3058 8.63297 54.3058 10.2888C54.3058 11.9446 53.9291 13.4079 53.1755 14.6787C52.4414 15.9302 51.427 16.8929 50.1326 17.5668C48.8574 18.2407 47.4277 18.5776 45.8434 18.5776ZM45.8434 14.3032C46.7901 14.3032 47.5919 13.9567 48.2488 13.2635C48.925 12.5704 49.2631 11.5788 49.2631 10.2888C49.2631 8.9988 48.9347 8.00722 48.2778 7.31408C47.6402 6.62094 46.8481 6.27437 45.9014 6.27437C44.9353 6.27437 44.1335 6.62094 43.496 7.31408C42.8584 7.98797 42.5396 8.97954 42.5396 10.2888C42.5396 11.5788 42.8487 12.5704 43.467 13.2635C44.1045 13.9567 44.8967 14.3032 45.8434 14.3032Z" fill="black" style="fill:black;fill:black;fill-opacity:1;"/>
<path d="M73.454 2.23105L63.3107 26H57.9782L61.6878 17.7978L55.1091 2.23105H60.6445L64.383 12.3105L68.0925 2.23105H73.454Z" fill="black" style="fill:black;fill:black;fill-opacity:1;"/>
<path d="M74.2607 10.2599C74.2607 8.60409 74.5698 7.15042 75.1881 5.89892C75.8257 4.64741 76.6854 3.68472 77.7674 3.01083C78.8493 2.33694 80.0569 2 81.39 2C82.5299 2 83.5249 2.23105 84.375 2.69314C85.2444 3.15524 85.911 3.76173 86.3747 4.51264V2.23105H91.3304V18.3466H86.3747V16.065C85.8917 16.8159 85.2154 17.4224 84.346 17.8845C83.4959 18.3466 82.5009 18.5776 81.361 18.5776C80.0472 18.5776 78.8493 18.2407 77.7674 17.5668C76.6854 16.8736 75.8257 15.9013 75.1881 14.6498C74.5698 13.3791 74.2607 11.9158 74.2607 10.2599ZM86.3747 10.2888C86.3747 9.05656 86.0269 8.08424 85.3314 7.37184C84.6552 6.65945 83.8244 6.30325 82.839 6.30325C81.8537 6.30325 81.0132 6.65945 80.3177 7.37184C79.6415 8.06498 79.3034 9.02768 79.3034 10.2599C79.3034 11.4922 79.6415 12.4741 80.3177 13.2058C81.0132 13.9182 81.8537 14.2744 82.839 14.2744C83.8244 14.2744 84.6552 13.9182 85.3314 13.2058C86.0269 12.4934 86.3747 11.5211 86.3747 10.2888Z" fill="black" style="fill:black;fill:black;fill-opacity:1;"/>
<path d="M93.9303 10.2599C93.9303 8.60409 94.2394 7.15042 94.8577 5.89892C95.4953 4.64741 96.355 3.68472 97.437 3.01083C98.5189 2.33694 99.7265 2 101.06 2C102.2 2 103.194 2.23105 104.045 2.69314C104.914 3.15524 105.581 3.76173 106.044 4.51264V2.23105H111V18.3466H106.044V16.065C105.561 16.8159 104.885 17.4224 104.016 17.8845C103.166 18.3466 102.171 18.5776 101.031 18.5776C99.7168 18.5776 98.5189 18.2407 97.437 17.5668C96.355 16.8736 95.4953 15.9013 94.8577 14.6498C94.2394 13.3791 93.9303 11.9158 93.9303 10.2599ZM106.044 10.2888C106.044 9.05656 105.697 8.08424 105.001 7.37184C104.325 6.65945 103.494 6.30325 102.509 6.30325C101.523 6.30325 100.683 6.65945 99.9873 7.37184C99.3111 8.06498 98.973 9.02768 98.973 10.2599C98.973 11.4922 99.3111 12.4741 99.9873 13.2058C100.683 13.9182 101.523 14.2744 102.509 14.2744C103.494 14.2744 104.325 13.9182 105.001 13.2058C105.697 12.4934 106.044 11.5211 106.044 10.2888Z" fill="black" style="fill:black;fill:black;fill-opacity:1;"/>
<path d="M10.4481 18.5776C9.03767 18.5776 7.78184 18.3369 6.68057 17.8556C5.57929 17.3742 4.70987 16.7196 4.07229 15.8917C3.43471 15.0445 3.07728 14.1011 3 13.0614H7.89776C7.95572 13.6197 8.21655 14.0722 8.68024 14.4188C9.14394 14.7653 9.71389 14.9386 10.3901 14.9386C11.0084 14.9386 11.4817 14.8231 11.8102 14.5921C12.1579 14.3418 12.3318 14.0241 12.3318 13.639C12.3318 13.1769 12.0903 12.84 11.6073 12.6282C11.1243 12.3971 10.3418 12.1468 9.25986 11.8773C8.10063 11.6077 7.1346 11.3285 6.36178 11.0397C5.58895 10.7316 4.9224 10.2599 4.3621 9.62455C3.8018 8.96991 3.52165 8.09386 3.52165 6.99639C3.52165 6.0722 3.77282 5.23466 4.27516 4.48376C4.79681 3.7136 5.55031 3.1071 6.53566 2.66426C7.54033 2.22142 8.72854 2 10.1003 2C12.129 2 13.7229 2.5006 14.8821 3.50181C16.0607 4.50301 16.7369 5.83153 16.9108 7.48737H12.3318C12.2545 6.929 12.0034 6.48616 11.5783 6.15885C11.1726 5.83153 10.6316 5.66787 9.9554 5.66787C9.37578 5.66787 8.93141 5.78339 8.62228 6.01444C8.31315 6.22623 8.15859 6.52467 8.15859 6.90975C8.15859 7.37184 8.40009 7.71841 8.88311 7.94946C9.38544 8.18051 10.1583 8.41155 11.2016 8.6426C12.3994 8.95066 13.3751 9.25872 14.1286 9.56679C14.8821 9.8556 15.539 10.3369 16.0993 11.0108C16.679 11.6655 16.9784 12.5511 16.9977 13.6679C16.9977 14.6113 16.7273 15.4585 16.1863 16.2094C15.6646 16.941 14.9015 17.5187 13.8968 17.9422C12.9114 18.3658 11.7619 18.5776 10.4481 18.5776Z" stroke="black" style="stroke:black;stroke:black;stroke-opacity:1;" stroke-width="4"/>
<path d="M27.3908 18.5776C25.8065 18.5776 24.3768 18.2407 23.1016 17.5668C21.8458 16.8929 20.8508 15.9302 20.1166 14.6787C19.4017 13.4272 19.0443 11.9639 19.0443 10.2888C19.0443 8.63297 19.4114 7.1793 20.1456 5.9278C20.8797 4.65704 21.8844 3.68472 23.1596 3.01083C24.4347 2.33694 25.8644 2 27.4487 2C29.033 2 30.4627 2.33694 31.7379 3.01083C33.013 3.68472 34.0177 4.65704 34.7519 5.9278C35.4861 7.1793 35.8532 8.63297 35.8532 10.2888C35.8532 11.9446 35.4764 13.4079 34.7229 14.6787C33.9887 15.9302 32.9744 16.8929 31.6799 17.5668C30.4048 18.2407 28.975 18.5776 27.3908 18.5776ZM27.3908 14.3032C28.3375 14.3032 29.1393 13.9567 29.7962 13.2635C30.4724 12.5704 30.8105 11.5788 30.8105 10.2888C30.8105 8.9988 30.4821 8.00722 29.8252 7.31408C29.1876 6.62094 28.3954 6.27437 27.4487 6.27437C26.4827 6.27437 25.6809 6.62094 25.0433 7.31408C24.4057 7.98797 24.087 8.97954 24.087 10.2888C24.087 11.5788 24.3961 12.5704 25.0143 13.2635C25.6519 13.9567 26.4441 14.3032 27.3908 14.3032Z" stroke="black" style="stroke:black;stroke:black;stroke-opacity:1;" stroke-width="4"/>
<path d="M45.8434 18.5776C44.2591 18.5776 42.8294 18.2407 41.5542 17.5668C40.2984 16.8929 39.3034 15.9302 38.5692 14.6787C37.8544 13.4272 37.4969 11.9639 37.4969 10.2888C37.4969 8.63297 37.864 7.1793 38.5982 5.9278C39.3324 4.65704 40.337 3.68472 41.6122 3.01083C42.8874 2.33694 44.3171 2 45.9014 2C47.4856 2 48.9154 2.33694 50.1905 3.01083C51.4657 3.68472 52.4703 4.65704 53.2045 5.9278C53.9387 7.1793 54.3058 8.63297 54.3058 10.2888C54.3058 11.9446 53.9291 13.4079 53.1755 14.6787C52.4414 15.9302 51.427 16.8929 50.1326 17.5668C48.8574 18.2407 47.4277 18.5776 45.8434 18.5776ZM45.8434 14.3032C46.7901 14.3032 47.5919 13.9567 48.2488 13.2635C48.925 12.5704 49.2631 11.5788 49.2631 10.2888C49.2631 8.9988 48.9347 8.00722 48.2778 7.31408C47.6402 6.62094 46.8481 6.27437 45.9014 6.27437C44.9353 6.27437 44.1335 6.62094 43.496 7.31408C42.8584 7.98797 42.5396 8.97954 42.5396 10.2888C42.5396 11.5788 42.8487 12.5704 43.467 13.2635C44.1045 13.9567 44.8967 14.3032 45.8434 14.3032Z" stroke="black" style="stroke:black;stroke:black;stroke-opacity:1;" stroke-width="4"/>
<path d="M73.454 2.23105L63.3107 26H57.9782L61.6878 17.7978L55.1091 2.23105H60.6445L64.383 12.3105L68.0925 2.23105H73.454Z" stroke="black" style="stroke:black;stroke:black;stroke-opacity:1;" stroke-width="4"/>
<path d="M74.2607 10.2599C74.2607 8.60409 74.5698 7.15042 75.1881 5.89892C75.8257 4.64741 76.6854 3.68472 77.7674 3.01083C78.8493 2.33694 80.0569 2 81.39 2C82.5299 2 83.5249 2.23105 84.375 2.69314C85.2444 3.15524 85.911 3.76173 86.3747 4.51264V2.23105H91.3304V18.3466H86.3747V16.065C85.8917 16.8159 85.2154 17.4224 84.346 17.8845C83.4959 18.3466 82.5009 18.5776 81.361 18.5776C80.0472 18.5776 78.8493 18.2407 77.7674 17.5668C76.6854 16.8736 75.8257 15.9013 75.1881 14.6498C74.5698 13.3791 74.2607 11.9158 74.2607 10.2599ZM86.3747 10.2888C86.3747 9.05656 86.0269 8.08424 85.3314 7.37184C84.6552 6.65945 83.8244 6.30325 82.839 6.30325C81.8537 6.30325 81.0132 6.65945 80.3177 7.37184C79.6415 8.06498 79.3034 9.02768 79.3034 10.2599C79.3034 11.4922 79.6415 12.4741 80.3177 13.2058C81.0132 13.9182 81.8537 14.2744 82.839 14.2744C83.8244 14.2744 84.6552 13.9182 85.3314 13.2058C86.0269 12.4934 86.3747 11.5211 86.3747 10.2888Z" stroke="black" style="stroke:black;stroke:black;stroke-opacity:1;" stroke-width="4"/>
<path d="M93.9303 10.2599C93.9303 8.60409 94.2394 7.15042 94.8577 5.89892C95.4953 4.64741 96.355 3.68472 97.437 3.01083C98.5189 2.33694 99.7265 2 101.06 2C102.2 2 103.194 2.23105 104.045 2.69314C104.914 3.15524 105.581 3.76173 106.044 4.51264V2.23105H111V18.3466H106.044V16.065C105.561 16.8159 104.885 17.4224 104.016 17.8845C103.166 18.3466 102.171 18.5776 101.031 18.5776C99.7168 18.5776 98.5189 18.2407 97.437 17.5668C96.355 16.8736 95.4953 15.9013 94.8577 14.6498C94.2394 13.3791 93.9303 11.9158 93.9303 10.2599ZM106.044 10.2888C106.044 9.05656 105.697 8.08424 105.001 7.37184C104.325 6.65945 103.494 6.30325 102.509 6.30325C101.523 6.30325 100.683 6.65945 99.9873 7.37184C99.3111 8.06498 98.973 9.02768 98.973 10.2599C98.973 11.4922 99.3111 12.4741 99.9873 13.2058C100.683 13.9182 101.523 14.2744 102.509 14.2744C103.494 14.2744 104.325 13.9182 105.001 13.2058C105.697 12.4934 106.044 11.5211 106.044 10.2888Z" stroke="black" style="stroke:black;stroke:black;stroke-opacity:1;" stroke-width="4"/>
<path d="M23.2812 6H106.436V14H23.2812V6Z" fill="black" style="fill:black;fill:black;fill-opacity:1;"/>
<path d="M10.4481 18.5776C9.03767 18.5776 7.78184 18.3369 6.68057 17.8556C5.57929 17.3742 4.70987 16.7196 4.07229 15.8917C3.43471 15.0445 3.07728 14.1011 3 13.0614H7.89776C7.95572 13.6197 8.21655 14.0722 8.68024 14.4188C9.14394 14.7653 9.71389 14.9386 10.3901 14.9386C11.0084 14.9386 11.4817 14.8231 11.8102 14.5921C12.1579 14.3418 12.3318 14.0241 12.3318 13.639C12.3318 13.1769 12.0903 12.84 11.6073 12.6282C11.1243 12.3971 10.3418 12.1468 9.25986 11.8773C8.10063 11.6077 7.1346 11.3285 6.36178 11.0397C5.58895 10.7316 4.9224 10.2599 4.3621 9.62455C3.8018 8.96991 3.52165 8.09386 3.52165 6.99639C3.52165 6.0722 3.77282 5.23466 4.27516 4.48376C4.79681 3.7136 5.55031 3.1071 6.53566 2.66426C7.54033 2.22142 8.72854 2 10.1003 2C12.129 2 13.7229 2.5006 14.8821 3.50181C16.0607 4.50301 16.7369 5.83153 16.9108 7.48737H12.3318C12.2545 6.929 12.0034 6.48616 11.5783 6.15885C11.1726 5.83153 10.6316 5.66787 9.9554 5.66787C9.37578 5.66787 8.93141 5.78339 8.62228 6.01444C8.31315 6.22623 8.15859 6.52467 8.15859 6.90975C8.15859 7.37184 8.40009 7.71841 8.88311 7.94946C9.38544 8.18051 10.1583 8.41155 11.2016 8.6426C12.3994 8.95066 13.3751 9.25872 14.1286 9.56679C14.8821 9.85559 15.539 10.3369 16.0993 11.0108C16.679 11.6655 16.9784 12.5511 16.9977 13.6679C16.9977 14.6113 16.7273 15.4585 16.1863 16.2094C15.6646 16.941 14.9015 17.5187 13.8968 17.9422C12.9114 18.3658 11.7619 18.5776 10.4481 18.5776Z" fill="#FFEA2E" style="fill:#FFEA2E;fill:color(display-p3 1.0000 0.9179 0.1792);fill-opacity:1;"/>
<path d="M27.3908 18.5776C25.8065 18.5776 24.3768 18.2407 23.1016 17.5668C21.8458 16.8929 20.8508 15.9302 20.1166 14.6787C19.4017 13.4272 19.0443 11.9639 19.0443 10.2888C19.0443 8.63297 19.4114 7.1793 20.1456 5.9278C20.8797 4.65704 21.8844 3.68472 23.1596 3.01083C24.4347 2.33694 25.8644 2 27.4487 2C29.033 2 30.4627 2.33694 31.7379 3.01083C33.013 3.68472 34.0177 4.65704 34.7519 5.9278C35.4861 7.1793 35.8532 8.63297 35.8532 10.2888C35.8532 11.9446 35.4764 13.4079 34.7229 14.6787C33.9887 15.9302 32.9744 16.8929 31.6799 17.5668C30.4048 18.2407 28.975 18.5776 27.3908 18.5776ZM27.3908 14.3032C28.3375 14.3032 29.1393 13.9567 29.7962 13.2635C30.4724 12.5704 30.8105 11.5788 30.8105 10.2888C30.8105 8.9988 30.4821 8.00722 29.8252 7.31408C29.1876 6.62094 28.3954 6.27437 27.4487 6.27437C26.4827 6.27437 25.6809 6.62094 25.0433 7.31408C24.4057 7.98797 24.0869 8.97954 24.0869 10.2888C24.0869 11.5788 24.3961 12.5704 25.0143 13.2635C25.6519 13.9567 26.4441 14.3032 27.3908 14.3032Z" fill="#FFEA2E" style="fill:#FFEA2E;fill:color(display-p3 1.0000 0.9179 0.1792);fill-opacity:1;"/>
<path d="M45.8434 18.5776C44.2591 18.5776 42.8294 18.2407 41.5542 17.5668C40.2984 16.8929 39.3034 15.9302 38.5692 14.6787C37.8544 13.4272 37.4969 11.9639 37.4969 10.2888C37.4969 8.63297 37.864 7.1793 38.5982 5.9278C39.3324 4.65704 40.337 3.68472 41.6122 3.01083C42.8874 2.33694 44.3171 2 45.9014 2C47.4856 2 48.9154 2.33694 50.1905 3.01083C51.4657 3.68472 52.4703 4.65704 53.2045 5.9278C53.9387 7.1793 54.3058 8.63297 54.3058 10.2888C54.3058 11.9446 53.929 13.4079 53.1755 14.6787C52.4414 15.9302 51.427 16.8929 50.1326 17.5668C48.8574 18.2407 47.4277 18.5776 45.8434 18.5776ZM45.8434 14.3032C46.7901 14.3032 47.5919 13.9567 48.2488 13.2635C48.925 12.5704 49.2631 11.5788 49.2631 10.2888C49.2631 8.9988 48.9347 8.00722 48.2778 7.31408C47.6402 6.62094 46.8481 6.27437 45.9014 6.27437C44.9353 6.27437 44.1335 6.62094 43.496 7.31408C42.8584 7.98797 42.5396 8.97954 42.5396 10.2888C42.5396 11.5788 42.8487 12.5704 43.467 13.2635C44.1045 13.9567 44.8967 14.3032 45.8434 14.3032Z" fill="#FFEA2E" style="fill:#FFEA2E;fill:color(display-p3 1.0000 0.9179 0.1792);fill-opacity:1;"/>
<path d="M73.454 2.23105L63.3107 26H57.9782L61.6878 17.7978L55.1091 2.23105H60.6445L64.383 12.3105L68.0925 2.23105H73.454Z" fill="#FFEA2E" style="fill:#FFEA2E;fill:color(display-p3 1.0000 0.9179 0.1792);fill-opacity:1;"/>
<path d="M74.2607 10.2599C74.2607 8.60409 74.5698 7.15042 75.1881 5.89892C75.8256 4.64741 76.6854 3.68472 77.7674 3.01083C78.8493 2.33694 80.0569 2 81.39 2C82.5299 2 83.5249 2.23105 84.375 2.69314C85.2444 3.15524 85.911 3.76173 86.3747 4.51264V2.23105H91.3304V18.3466H86.3747V16.065C85.8917 16.8159 85.2154 17.4224 84.346 17.8845C83.4959 18.3466 82.5009 18.5776 81.361 18.5776C80.0472 18.5776 78.8493 18.2407 77.7674 17.5668C76.6854 16.8736 75.8256 15.9013 75.1881 14.6498C74.5698 13.3791 74.2607 11.9158 74.2607 10.2599ZM86.3747 10.2888C86.3747 9.05656 86.0269 8.08424 85.3314 7.37184C84.6552 6.65945 83.8244 6.30325 82.839 6.30325C81.8537 6.30325 81.0132 6.65945 80.3177 7.37184C79.6415 8.06498 79.3033 9.02768 79.3033 10.2599C79.3033 11.4922 79.6415 12.4741 80.3177 13.2058C81.0132 13.9182 81.8537 14.2744 82.839 14.2744C83.8244 14.2744 84.6552 13.9182 85.3314 13.2058C86.0269 12.4934 86.3747 11.5211 86.3747 10.2888Z" fill="#FFEA2E" style="fill:#FFEA2E;fill:color(display-p3 1.0000 0.9179 0.1792);fill-opacity:1;"/>
<path d="M93.9303 10.2599C93.9303 8.60409 94.2394 7.15042 94.8577 5.89892C95.4953 4.64741 96.355 3.68472 97.437 3.01083C98.5189 2.33694 99.7265 2 101.06 2C102.199 2 103.194 2.23105 104.045 2.69314C104.914 3.15524 105.581 3.76173 106.044 4.51264V2.23105H111V18.3466H106.044V16.065C105.561 16.8159 104.885 17.4224 104.016 17.8845C103.166 18.3466 102.171 18.5776 101.031 18.5776C99.7168 18.5776 98.5189 18.2407 97.437 17.5668C96.355 16.8736 95.4953 15.9013 94.8577 14.6498C94.2394 13.3791 93.9303 11.9158 93.9303 10.2599ZM106.044 10.2888C106.044 9.05656 105.697 8.08424 105.001 7.37184C104.325 6.65945 103.494 6.30325 102.509 6.30325C101.523 6.30325 100.683 6.65945 99.9873 7.37184C99.3111 8.06498 98.973 9.02768 98.973 10.2599C98.973 11.4922 99.3111 12.4741 99.9873 13.2058C100.683 13.9182 101.523 14.2744 102.509 14.2744C103.494 14.2744 104.325 13.9182 105.001 13.2058C105.697 12.4934 106.044 11.5211 106.044 10.2888Z" fill="#FFEA2E" style="fill:#FFEA2E;fill:color(display-p3 1.0000 0.9179 0.1792);fill-opacity:1;"/>
</svg>
